<svg xmlns="http://www.w3.org/2000/svg" width="31.524" height="31.524" viewBox="0 0 31.524 31.524">
    <path fill="none" d="M0 0h31.524v31.524H0z"/>
    <path fill="#646363" d="M25.643 5.254H4.627A2.635 2.635 0 0 0 2 7.881v15.762a2.635 2.635 0 0 0 2.627 2.627h21.016a2.635 2.635 0 0 0 2.627-2.627V7.881a2.635 2.635 0 0 0-2.627-2.627zm0 18.389H4.627V7.881h21.016zM4.627 0h21.016v2.627H4.627zm0 28.9h21.016v2.627H4.627zm10.508-13.138a3.284 3.284 0 1 0-3.284-3.284 3.285 3.285 0 0 0 3.284 3.284zm0-4.6a1.313 1.313 0 1 1-1.313 1.313 1.317 1.317 0 0 1 1.313-1.31zM21.7 21c0-2.745-4.348-3.927-6.567-3.927S8.567 18.257 8.567 21v1.327H21.7zm-10.757-.644a7.361 7.361 0 0 1 8.393 0z" transform="translate(.627)"/>
</svg>
